<?xml version="1.0" encoding="UTF-8"?><svg id="a" xmlns="http://www.w3.org/2000/svg" viewBox="0 0 1920 880"><path d="M295.64,504.44h0m-18.1-9.64h0m128.32,103.32c-31.32-8.88-54.65-27.45-72.14-55.03-10.22-16.13-23.27-29.06-38.08-38.65h0c-5.49-4.05-11.57-7.3-18.1-9.64-7.44-2.66-15.4-4.19-23.74-4.19-39.38,0-71.3,32.3-71.3,72.15,0,8.63,1.58,16.87,4.32,24.54,1.09,3.87,2.3,7.74,3.66,11.6,25.6,72.97,89.64,121.72,165.78,126.04,59.15,3.36,110.14-17.36,150.44-62.07,38.83-43.06,54.17-93.97,47.26-151.76-.41-3.45-1.76-6.78-2.67-10.17-.74,.13-1.48,.27-2.22,.4-.39,1.23-.94,2.43-1.14,3.69-3.25,20.97-12.33,39.1-25.41,55.56-25.7,32.34-77.19,48.72-116.66,37.54" style="fill:#fff;"/><path d="M368.95,333.13c-114.39,0-207.45,93.06-207.45,207.45s93.06,207.45,207.45,207.45,207.45-93.06,207.45-207.45-93.06-207.45-207.45-207.45m0,475.2c-147.64,0-267.75-120.11-267.75-267.75s120.11-267.75,267.75-267.75,267.75,120.11,267.75,267.75-120.11,267.75-267.75,267.75" style="fill:#fff;"/><text transform="translate(753.58 468.27)" style="fill:#fff; font-family:Gotham-Black, Gotham; font-size:103.59px;"><tspan x="0" y="0" style="letter-spacing:-.02em;">W</tspan><tspan x="113.64" y="0" style="letter-spacing:0em;">E</tspan><tspan x="182.42" y="0" style="letter-spacing:-.02em;">S</tspan><tspan x="247.79" y="0" style="letter-spacing:-.03em;">T</tspan><tspan x="313.46" y="0" style="letter-spacing:0em;">E</tspan><tspan x="382.77" y="0" style="letter-spacing:0em;">R</tspan><tspan x="456.52" y="0">N</tspan><tspan x="0" y="100.07" style="letter-spacing:-.06em;">D</tspan><tspan x="73.13" y="100.07" style="letter-spacing:-.02em;">A</tspan><tspan x="153.83" y="100.07" style="letter-spacing:-.05em;">K</tspan><tspan x="223.86" y="100.07" style="letter-spacing:-.03em;">O</tspan><tspan x="306.52" y="100.07" style="letter-spacing:-.1em;">T</tspan><tspan x="364.12" y="100.07" style="letter-spacing:-.02em;">A </tspan><tspan x="471.03" y="100.07" style="letter-spacing:0em;">R</tspan><tspan x="544.78" y="100.07" style="letter-spacing:-.02em;">E</tspan><tspan x="612.22" y="100.07" style="letter-spacing:0em;">G</tspan><tspan x="691.67" y="100.07" style="letter-spacing:-.02em;">I</tspan><tspan x="723.89" y="100.07" style="letter-spacing:-.01em;">O</tspan><tspan x="808.63" y="100.07" style="letter-spacing:-.02em;">N</tspan><tspan x="888.18" y="100.07" style="letter-spacing:-.02em;">A</tspan><tspan x="968.88" y="100.07">L </tspan><tspan x="0" y="200.13">WATER SYSTEM </tspan></text></svg>